# Blender v3.1.2 OBJ File: ''
# www.blender.org
o Glass_ButtonPanelMesh.001
v 0.281870 -0.820373 -0.635489
v 0.281870 -0.942156 -0.513706
v 0.281870 0.942156 -0.513706
v 0.281870 0.820373 -0.635489
v 0.281870 -0.942156 0.513706
v 0.281870 -0.820373 0.635489
v 0.281870 0.820373 0.635489
v 0.281870 0.942156 0.513706
vt 0.067124 0.037174
vt 0.319812 0.037174
vt 0.349764 0.067126
vt 0.349764 0.470661
vt 0.319811 0.500614
vt 0.067124 0.500613
vt 0.037172 0.470661
vt 0.037172 0.067126
vn 1.0000 0.0000 0.0000
s 1
f 3/1/1 8/2/1 7/3/1 6/4/1 5/5/1 2/6/1 1/7/1 4/8/1
