# Blender v3.1.2 OBJ File: ''
# www.blender.org
o ButtonPanel_ButtonPanelMesh
v -0.300000 -1.000000 0.504982
v -0.300000 -0.978787 0.556195
v -0.300000 -0.993787 0.532408
v -0.300000 -0.856195 0.678787
v -0.300000 -0.804982 0.700000
v -0.300000 -0.832408 0.693787
v -0.300000 0.804982 0.700000
v -0.300000 0.856195 0.678787
v -0.300000 0.832408 0.693787
v -0.300000 0.978787 0.556195
v -0.300000 1.000000 0.504982
v -0.300000 0.993787 0.532408
v -0.300000 -0.804982 -0.700000
v -0.300000 -0.856195 -0.678787
v -0.300000 -0.832408 -0.693787
v -0.300000 -0.978787 -0.556195
v -0.300000 -1.000000 -0.504982
v -0.300000 -0.993787 -0.532408
v -0.300000 1.000000 -0.504982
v -0.300000 0.978787 -0.556195
v -0.300000 0.993787 -0.532408
v -0.300000 0.856195 -0.678787
v -0.300000 0.804982 -0.700000
v -0.300000 0.832408 -0.693787
v 0.270000 -0.856195 -0.678787
v 0.270000 -0.804982 -0.700000
v 0.270000 -0.832408 -0.693787
v 0.287321 -0.830877 -0.690090
v 0.291213 -0.813768 -0.691213
v 0.291213 -0.843768 -0.678787
v 0.270000 -1.000000 -0.504982
v 0.270000 -0.978787 -0.556195
v 0.291213 -0.991213 -0.513768
v 0.287321 -0.990090 -0.530877
v 0.270000 -0.993787 -0.532408
v 0.291213 -0.978787 -0.543768
v 0.270000 1.000000 -0.504982
v 0.270000 0.978787 -0.556195
v 0.291213 0.991213 -0.513768
v 0.287321 0.990090 -0.530877
v 0.291213 0.978787 -0.543768
v 0.270000 0.993787 -0.532408
v 0.270000 0.804982 -0.700000
v 0.270000 0.856195 -0.678787
v 0.291213 0.813768 -0.691213
v 0.287321 0.830877 -0.690090
v 0.270000 0.832408 -0.693787
v 0.291213 0.843768 -0.678787
v 0.270000 -1.000000 0.504982
v 0.270000 -0.978787 0.556195
v 0.291213 -0.991213 0.513768
v 0.287321 -0.990090 0.530877
v 0.291213 -0.978787 0.543768
v 0.270000 -0.993787 0.532408
v 0.270000 -0.804982 0.700000
v 0.270000 -0.856195 0.678787
v 0.291213 -0.813768 0.691213
v 0.287321 -0.830877 0.690090
v 0.270000 -0.832408 0.693787
v 0.291213 -0.843768 0.678787
v 0.270000 0.856195 0.678787
v 0.270000 0.804982 0.700000
v 0.270000 0.832408 0.693787
v 0.287321 0.830877 0.690090
v 0.291213 0.813768 0.691213
v 0.291213 0.843768 0.678787
v 0.270000 1.000000 0.504982
v 0.270000 0.978787 0.556195
v 0.291213 0.991213 0.513768
v 0.287321 0.990090 0.530877
v 0.270000 0.993787 0.532408
v 0.291213 0.978787 0.543768
v 0.300000 -0.822555 -0.670000
v 0.300000 -0.970000 -0.522555
v 0.300000 0.970000 -0.522555
v 0.300000 0.822555 -0.670000
v 0.300000 -0.970000 0.522555
v 0.300000 -0.822555 0.670000
v 0.300000 0.822555 0.670000
v 0.300000 0.970000 0.522555
v 0.281870 -0.802538 -0.621673
v 0.281870 -0.921673 -0.502537
v 0.281870 0.921673 -0.502537
v 0.281870 0.802538 -0.621673
v 0.281870 -0.921673 0.502537
v 0.281870 -0.802538 0.621673
v 0.281870 0.802538 0.621673
v 0.281870 0.921673 0.502537
v 0.300000 -0.805086 -0.627826
v 0.293847 -0.802538 -0.621673
v 0.293847 -0.921673 -0.502537
v 0.300000 -0.927826 -0.505086
v 0.300000 0.927826 -0.505086
v 0.293847 0.921673 -0.502537
v 0.293847 0.802538 -0.621673
v 0.300000 0.805086 -0.627826
v 0.300000 -0.927826 0.505086
v 0.293847 -0.921673 0.502537
v 0.293847 -0.802538 0.621673
v 0.300000 -0.805086 0.627826
v 0.300000 0.805086 0.627826
v 0.293847 0.802538 0.621673
v 0.293847 0.921673 0.502537
v 0.300000 0.927826 0.505086
vt 0.554344 0.977877
vt 0.414311 0.971358
vt 0.407762 0.947701
vt 0.547795 0.954220
vt 0.160406 0.604818
vt 0.020493 0.600410
vt 0.026291 0.562667
vt 0.166204 0.567075
vt 0.414311 0.490616
vt 0.554344 0.497135
vt 0.547795 0.533690
vt 0.407762 0.527171
vt 0.406629 0.936240
vt 0.406629 0.540864
vt 0.546662 0.547383
vt 0.546662 0.942759
vt 0.768539 0.022779
vt 0.908721 0.022063
vt 0.864875 0.158037
vt 0.724693 0.158753
vt 0.166342 0.863741
vt 0.026429 0.859333
vt 0.019690 0.614222
vt 0.159603 0.618629
vt 0.862060 0.225699
vt 0.908721 0.567530
vt 0.768539 0.568245
vt 0.721878 0.226415
vt 0.037172 0.067126
vt 0.067124 0.037174
vt 0.067124 0.037174
vt 0.037172 0.067126
vt 0.546994 0.949168
vt 0.551447 0.948795
vt 0.553007 0.951411
vt 0.552343 0.944697
vt 0.025022 0.475694
vt 0.022814 0.481027
vt 0.019973 0.477785
vt 0.019690 0.473484
vt 0.062091 0.512763
vt 0.064302 0.518096
vt 0.060002 0.517814
vt 0.056760 0.514972
vt 0.910092 0.019690
vt 0.914392 0.020660
vt 0.914574 0.022720
vt 0.560219 0.977466
vt 0.559951 0.979520
vt 0.555614 0.980310
vt 0.172082 0.865464
vt 0.171301 0.869513
vt 0.166860 0.869992
vt 0.062091 0.025024
vt 0.056760 0.022814
vt 0.060002 0.019972
vt 0.064302 0.019690
vt 0.555614 0.492200
vt 0.559951 0.493226
vt 0.560219 0.496724
vt 0.025022 0.062093
vt 0.019690 0.064302
vt 0.019973 0.060000
vt 0.022814 0.056760
vt 0.546994 0.540321
vt 0.551447 0.540701
vt 0.552343 0.545006
vt 0.553007 0.536985
vt 0.869965 0.161059
vt 0.868297 0.163606
vt 0.863864 0.163049
vt 0.324844 0.512764
vt 0.330179 0.514972
vt 0.326939 0.517814
vt 0.322637 0.518096
vt 0.863266 0.169436
vt 0.869023 0.167736
vt 0.361914 0.475694
vt 0.367249 0.473484
vt 0.366967 0.477785
vt 0.364125 0.481027
vt 0.861535 0.219040
vt 0.866000 0.218845
vt 0.867404 0.222624
vt 0.861497 0.211970
vt 0.867074 0.214581
vt 0.167388 0.561884
vt 0.171746 0.562815
vt 0.172082 0.566429
vt 0.914574 0.568186
vt 0.914161 0.571672
vt 0.909786 0.572517
vt 0.361914 0.062094
vt 0.364125 0.056760
vt 0.366967 0.060001
vt 0.367249 0.064302
vt 0.324844 0.025024
vt 0.322637 0.019690
vt 0.326939 0.019972
vt 0.330179 0.022815
vt 0.159755 0.611568
vt 0.164217 0.611833
vt 0.165226 0.616088
vt 0.165696 0.607997
vt 0.769910 0.020406
vt 0.415581 0.973790
vt 0.406961 0.942648
vt 0.026947 0.865584
vt 0.415581 0.485681
vt 0.406961 0.533802
vt 0.723682 0.163764
vt 0.723084 0.170151
vt 0.721353 0.219755
vt 0.721315 0.212685
vt 0.019843 0.607161
vt 0.769603 0.573232
vt 0.027475 0.557477
vt 0.037172 0.470661
vt 0.037172 0.470661
vt 0.319812 0.037174
vt 0.319812 0.037174
vt 0.349764 0.067126
vt 0.349764 0.470661
vt 0.349764 0.470661
vt 0.349764 0.067126
vt 0.319811 0.500614
vt 0.067124 0.500613
vt 0.067124 0.500613
vt 0.319811 0.500614
vt 0.066483 0.502160
vt 0.320452 0.502160
vt 0.351311 0.471302
vt 0.035625 0.471302
vt 0.035625 0.066485
vt 0.351311 0.066486
vt 0.320452 0.035627
vt 0.066483 0.035627
vn 0.0000 -0.7071 -0.7071
vn 0.0000 0.7071 0.7071
vn 0.0000 0.7071 -0.7071
vn 0.0000 0.0000 -1.0000
vn 0.0000 -1.0000 0.0000
vn 0.0000 1.0000 0.0000
vn 0.0000 0.0000 1.0000
vn 0.4419 -0.3433 0.8288
vn 0.4419 -0.8288 0.3433
vn 0.0000 -0.9239 0.3827
vn 0.0000 -0.3827 0.9239
vn 0.0000 -0.3827 -0.9239
vn 0.5447 -0.3209 -0.7748
vn 0.7071 -0.5000 -0.5000
vn 0.7071 0.0000 -0.7071
vn 1.0000 -0.0000 0.0000
vn 0.5447 -0.3210 -0.7748
vn 0.7071 -0.7071 0.0000
vn 0.5447 -0.7748 -0.3209
vn 0.0000 -0.9239 -0.3827
vn 0.7071 0.7071 0.0000
vn 0.5447 0.7748 -0.3209
vn 0.0000 0.9239 -0.3827
vn 0.7071 0.5000 -0.5000
vn 0.5447 0.3210 -0.7748
vn 0.0000 0.3827 -0.9239
vn 0.5447 0.3209 -0.7748
vn 0.5447 -0.7748 0.3209
vn 0.7071 -0.5000 0.5000
vn -0.0000 -0.7071 0.7071
vn 0.7071 0.0000 0.7071
vn 0.5447 -0.3210 0.7748
vn 0.5447 -0.3209 0.7748
vn 0.0000 0.3827 0.9239
vn 0.5447 0.3209 0.7748
vn 0.7071 0.5000 0.5000
vn 0.5447 0.3210 0.7748
vn 0.5447 0.7748 0.3209
vn 0.0000 0.9239 0.3827
vn 0.4419 0.3433 0.8288
vn 0.4419 -0.8288 -0.3433
vn 0.4419 -0.3433 -0.8288
vn 0.4419 0.3433 -0.8288
vn 0.4419 0.8288 -0.3433
vn 0.4419 0.8288 0.3433
vn 0.9598 0.2593 0.1074
vn 0.9598 0.2593 -0.1074
vn 0.9598 0.1074 -0.2593
vn 0.9598 0.1074 0.2593
vn 0.9598 -0.1074 0.2593
vn 0.9598 -0.1074 -0.2593
vn 0.9598 -0.2593 -0.1074
vn 0.9598 -0.2593 0.1074
s 1
f 32/1/1 16/2/1 14/3/1 25/4/1
f 68/5/2 10/6/2 8/7/2 61/8/2
f 20/9/3 38/10/3 44/11/3 22/12/3
f 13/13/4 23/14/4 43/15/4 26/16/4
f 17/17/5 31/18/5 49/19/5 1/20/5
f 37/21/6 19/22/6 11/23/6 67/24/6
f 55/25/7 62/26/7 7/27/7 5/28/7
f 95/29/8 94/30/9 83/31/10 84/32/11
f 25/4/1 27/33/12 28/34/13 30/35/14
f 26/16/4 29/36/15 28/34/13 27/33/12
f 73/37/16 30/38/14 28/39/17 29/40/15
f 74/41/16 33/42/18 34/43/19 36/44/14
f 31/18/5 35/45/20 34/46/19 33/47/18
f 32/1/1 36/48/14 34/49/19 35/50/20
f 37/21/6 39/51/21 40/52/22 42/53/23
f 75/54/16 41/55/24 40/56/22 39/57/21
f 38/10/3 42/58/23 40/59/22 41/60/24
f 76/61/16 45/62/15 46/63/25 48/64/24
f 43/15/4 47/65/26 46/66/27 45/67/15
f 44/11/3 48/68/24 46/66/27 47/65/26
f 49/19/5 51/69/18 52/70/28 54/71/10
f 77/72/16 53/73/29 52/74/28 51/75/18
f 50/76/30 54/71/10 52/70/28 53/77/29
f 78/78/16 57/79/31 58/80/32 60/81/29
f 55/25/7 59/82/11 58/83/33 57/84/31
f 56/85/30 60/86/29 58/83/33 59/82/11
f 61/8/2 63/87/34 64/88/35 66/89/36
f 62/26/7 65/90/31 64/91/35 63/92/34
f 79/93/16 66/94/36 64/95/37 65/96/31
f 80/97/16 69/98/21 70/99/38 72/100/36
f 67/24/6 71/101/39 70/102/38 69/103/21
f 68/5/2 72/104/36 70/102/38 71/101/39
f 73/37/16 74/41/16 36/44/14 30/38/14
f 30/35/14 36/48/14 32/1/1 25/4/1
f 31/18/5 17/17/5 18/105/20 35/45/20
f 35/50/20 18/106/20 16/2/1 32/1/1
f 13/13/4 26/16/4 27/33/12 15/107/12
f 15/107/12 27/33/12 25/4/1 14/3/1
f 19/22/6 37/21/6 42/53/23 21/108/23
f 21/109/23 42/58/23 38/10/3 20/9/3
f 75/54/16 76/61/16 48/64/24 41/55/24
f 41/60/24 48/68/24 44/11/3 38/10/3
f 43/15/4 23/14/4 24/110/26 47/65/26
f 47/65/26 24/110/26 22/12/3 44/11/3
f 1/20/5 49/19/5 54/71/10 3/111/10
f 3/111/10 54/71/10 50/76/30 2/112/30
f 77/72/16 78/78/16 60/81/29 53/73/29
f 53/77/29 60/86/29 56/85/30 50/76/30
f 55/25/7 5/28/7 6/113/11 59/82/11
f 59/82/11 6/113/11 4/114/30 56/85/30
f 79/93/16 80/97/16 72/100/36 66/94/36
f 66/89/36 72/104/36 68/5/2 61/8/2
f 67/24/6 11/23/6 12/115/39 71/101/39
f 71/101/39 12/115/39 10/6/2 68/5/2
f 7/27/7 62/26/7 63/92/34 9/116/34
f 9/117/34 63/87/34 61/8/2 8/7/2
f 74/41/16 77/72/16 51/75/18 33/42/18
f 33/47/18 51/69/18 49/19/5 31/18/5
f 78/78/16 79/93/16 65/96/31 57/79/31
f 57/84/31 65/90/31 62/26/7 55/25/7
f 80/97/16 75/54/16 39/57/21 69/98/21
f 69/103/21 39/51/21 37/21/6 67/24/6
f 76/61/16 73/37/16 29/40/15 45/62/15
f 45/67/15 29/36/15 26/16/4 43/15/4
f 2/112/30 50/76/30 56/85/30 4/114/30
f 90/118/40 95/29/8 84/32/11 81/119/34
f 94/30/9 103/120/41 88/121/20 83/31/10
f 102/122/42 99/123/43 86/124/26 87/125/12
f 98/126/44 91/127/45 82/128/39 85/129/23
f 103/120/41 102/122/42 87/125/12 88/121/20
f 99/123/43 98/126/44 85/129/23 86/124/26
f 92/130/46 97/131/47 77/72/16 74/41/16
f 97/131/47 100/132/48 78/78/16 77/72/16
f 89/133/49 92/130/46 74/41/16 73/37/16
f 96/134/50 89/133/49 73/37/16 76/61/16
f 100/132/48 101/135/51 79/93/16 78/78/16
f 101/135/51 104/136/52 80/97/16 79/93/16
f 93/137/53 96/134/50 76/61/16 75/54/16
f 104/136/52 93/137/53 75/54/16 80/97/16
f 90/118/40 91/127/45 92/130/46 89/133/49
f 94/30/9 95/29/8 96/134/50 93/137/53
f 98/126/44 99/123/43 100/132/48 97/131/47
f 102/122/42 103/120/41 104/136/52 101/135/51
f 91/127/45 98/126/44 97/131/47 92/130/46
f 99/123/43 102/122/42 101/135/51 100/132/48
f 103/120/41 94/30/9 93/137/53 104/136/52
f 95/29/8 90/118/40 89/133/49 96/134/50
f 91/127/45 90/118/40 81/119/34 82/128/39
